<svg width="66" height="60" viewBox="0 0 66 60" fill="none" xmlns="http://www.w3.org/2000/svg">
<path d="M57.245 17.0764C57.429 17.057 57.599 17.0155 57.755 16.952C57.9798 16.8585 58.1578 16.7293 58.289 16.5642C58.4203 16.3972 58.4859 16.2023 58.4859 15.9796C58.4859 15.7767 58.4292 15.6117 58.3158 15.4844C58.2025 15.3571 58.0533 15.2537 57.8684 15.1742C57.7796 15.1359 57.6872 15.1 57.5913 15.0663C57.4878 15.03 57.3803 14.9963 57.2688 14.9653L57.245 14.9585V17.0764Z" fill="#696969"/>
<path d="M56.7558 14.1121V12.1301C56.5965 12.1501 56.4513 12.1883 56.3203 12.2449C56.1194 12.3324 55.9623 12.4527 55.8489 12.6058C55.7376 12.759 55.6819 12.9329 55.6819 13.1278C55.6819 13.2909 55.7207 13.4311 55.7982 13.5484C55.8778 13.6638 55.9792 13.7602 56.1025 13.8378C56.1627 13.8746 56.2242 13.9084 56.2871 13.9391C56.3532 13.9714 56.421 14.0003 56.4903 14.0257C56.584 14.0588 56.6726 14.0876 56.7558 14.1121Z" fill="#696969"/>
<path fill-rule="evenodd" clip-rule="evenodd" d="M57 7.5C53.134 7.5 50 10.634 50 14.5C50 18.366 53.134 21.5 57 21.5C60.866 21.5 64 18.366 64 14.5C64 10.634 60.866 7.5 57 7.5ZM56.7558 17.75V18.4136H57.245V17.7495C57.6073 17.726 57.9225 17.6501 58.1906 17.5217C58.5207 17.3646 58.7713 17.1528 58.9423 16.8864C59.1153 16.6199 59.2018 16.3216 59.2018 15.9915C59.2018 15.7051 59.1432 15.4635 59.0258 15.2666C58.9085 15.0698 58.7593 14.9087 58.5783 14.7834C58.3994 14.6561 58.2114 14.5557 58.0145 14.4821C57.8197 14.4085 57.6427 14.3508 57.4836 14.3091L57.245 14.2448V12.1236C57.5225 12.1503 57.7631 12.2305 57.9669 12.3642C58.2214 12.5312 58.3666 12.7659 58.4024 13.0682H59.1183C59.1083 12.7599 59.0128 12.4845 58.8319 12.2419C58.6529 11.9993 58.4103 11.8084 58.1041 11.6692C57.8483 11.5512 57.5619 11.4826 57.245 11.4631V10.7773H56.7558V11.4721C56.4822 11.4997 56.2286 11.5664 55.9951 11.6722C55.6809 11.8133 55.4304 12.0122 55.2434 12.2687C55.0585 12.5233 54.966 12.8216 54.966 13.1636C54.966 13.5753 55.1052 13.9084 55.3836 14.1629C55.662 14.4175 56.0399 14.6133 56.5171 14.7506L56.7558 14.8187V17.0771C56.6016 17.0612 56.4544 17.0294 56.3143 16.9818C56.1055 16.9082 55.9325 16.7969 55.7953 16.6477C55.6601 16.4966 55.5825 16.3057 55.5626 16.075H54.7989C54.8228 16.4091 54.9252 16.7024 55.1062 16.955C55.2891 17.2075 55.5398 17.4044 55.8579 17.5456C56.1183 17.6604 56.4177 17.7286 56.7558 17.75Z" fill="#696969"/>
<path d="M41.175 8.34029C41.3064 8.32643 41.4279 8.29681 41.5393 8.25142C41.6998 8.18466 41.827 8.09233 41.9207 7.97443C42.0145 7.85512 42.0613 7.71591 42.0613 7.55682C42.0613 7.41193 42.0209 7.29404 41.9399 7.20312C41.8589 7.11221 41.7524 7.03835 41.6203 6.98154C41.5568 6.95422 41.4908 6.92854 41.4224 6.90451C41.3484 6.87856 41.2717 6.85451 41.192 6.83238L41.175 6.82751V8.34029Z" fill="#696969"/>
<path d="M40.8256 6.22292V4.80719C40.7118 4.82147 40.6081 4.84882 40.5145 4.88921C40.371 4.95171 40.2588 5.03764 40.1778 5.14702C40.0983 5.25639 40.0585 5.38068 40.0585 5.51988C40.0585 5.63637 40.0862 5.73651 40.1416 5.82031C40.1984 5.90269 40.2709 5.97159 40.3589 6.02699C40.4019 6.05331 40.4459 6.07744 40.4908 6.09937C40.538 6.12241 40.5864 6.14304 40.6359 6.16122C40.7029 6.18486 40.7661 6.20543 40.8256 6.22292Z" fill="#696969"/>
<path fill-rule="evenodd" clip-rule="evenodd" d="M41 1.5C38.2386 1.5 36 3.73857 36 6.5C36 9.26143 38.2386 11.5 41 11.5C43.7614 11.5 46 9.26143 46 6.5C46 3.73857 43.7614 1.5 41 1.5ZM40.8256 8.82144V9.29546H41.175V8.82108C41.4338 8.80431 41.6589 8.75006 41.8504 8.65839C42.0862 8.54616 42.2652 8.39488 42.3873 8.20454C42.5109 8.01421 42.5727 7.80113 42.5727 7.56534C42.5727 7.36079 42.5308 7.18822 42.447 7.04759C42.3632 6.90697 42.2567 6.7919 42.1274 6.70241C41.9996 6.61151 41.8653 6.53978 41.7247 6.48721C41.5855 6.43466 41.459 6.39346 41.3455 6.36363L41.175 6.31773V4.8026C41.3732 4.82167 41.5451 4.87895 41.6906 4.97443C41.8724 5.09375 41.9761 5.26137 42.0017 5.47728H42.5131C42.5059 5.2571 42.4377 5.06036 42.3085 4.88707C42.1807 4.71378 42.0074 4.57741 41.7886 4.47798C41.6059 4.39374 41.4014 4.34468 41.175 4.33081V3.84091H40.8256V4.3372C40.6301 4.35695 40.449 4.40459 40.2822 4.48012C40.0578 4.58096 39.8788 4.72301 39.7453 4.90625C39.6132 5.08807 39.5471 5.30113 39.5471 5.54546C39.5471 5.83949 39.6465 6.07741 39.8455 6.25923C40.0443 6.44106 40.3142 6.58096 40.6551 6.67897L40.8256 6.72768V8.34081C40.7154 8.32941 40.6103 8.30672 40.5102 8.27272C40.3611 8.22017 40.2375 8.14062 40.1395 8.03409C40.0429 7.92613 39.9875 7.78978 39.9733 7.625H39.4278C39.4449 7.86363 39.518 8.07315 39.6473 8.25356C39.778 8.43394 39.957 8.57457 40.1842 8.67543C40.3702 8.75746 40.584 8.80614 40.8256 8.82144Z" fill="#696969"/>
<path d="M15.35 14.1806C15.6128 14.1529 15.8557 14.0936 16.0786 14.0028C16.3997 13.8693 16.6539 13.6847 16.8414 13.4489C17.0289 13.2102 17.1227 12.9318 17.1227 12.6136C17.1227 12.3239 17.0417 12.0881 16.8798 11.9062C16.7179 11.7244 16.5048 11.5767 16.2406 11.4631C16.1136 11.4084 15.9817 11.3571 15.8447 11.309C15.6969 11.2571 15.5433 11.209 15.384 11.1648L15.35 11.155V14.1806Z" fill="#696969"/>
<path d="M14.6511 9.94583V7.11438C14.4236 7.14294 14.2162 7.19763 14.0289 7.27841C13.7421 7.40341 13.5176 7.57529 13.3556 7.79404C13.1965 8.01279 13.1171 8.26135 13.1171 8.53976C13.1171 8.77274 13.1724 8.97302 13.2832 9.14062C13.3969 9.30539 13.5417 9.44318 13.7179 9.55399C13.8038 9.60663 13.8917 9.65488 13.9816 9.69873C14.076 9.74481 14.1729 9.78607 14.2719 9.82245C14.4058 9.86972 14.5322 9.91086 14.6511 9.94583Z" fill="#696969"/>
<path fill-rule="evenodd" clip-rule="evenodd" d="M15 0.5C9.47717 0.5 5 4.97714 5 10.5C5 16.0229 9.47717 20.5 15 20.5C20.5228 20.5 25 16.0229 25 10.5C25 4.97714 20.5228 0.5 15 0.5ZM14.6511 15.1429V16.0909H15.35V15.1422C15.8676 15.1086 16.3179 15.0001 16.7008 14.8168C17.1724 14.5923 17.5304 14.2898 17.7747 13.9091C18.0219 13.5284 18.1454 13.1023 18.1454 12.6307C18.1454 12.2216 18.0616 11.8764 17.894 11.5952C17.7264 11.3139 17.5133 11.0838 17.2548 10.9048C16.9991 10.723 16.7306 10.5796 16.4493 10.4744C16.171 10.3693 15.9181 10.2869 15.6909 10.2273L15.35 10.1355V7.10519C15.7465 7.14334 16.0902 7.2579 16.3812 7.44885C16.7449 7.6875 16.9523 8.02274 17.0034 8.45456H18.0261C18.0118 8.01419 17.8755 7.62073 17.6171 7.27414C17.3613 6.92755 17.0148 6.65482 16.5773 6.45596C16.2118 6.28748 15.8027 6.18936 15.35 6.16162V5.18182H14.6511V6.17441C14.2603 6.2139 13.8979 6.30917 13.5645 6.46024C13.1156 6.66193 12.7577 6.94601 12.4906 7.3125C12.2264 7.67615 12.0942 8.10226 12.0942 8.59091C12.0942 9.17899 12.2931 9.65482 12.6909 10.0185C13.0886 10.3821 13.6284 10.6619 14.3102 10.8579L14.6511 10.9554V14.1816C14.4308 14.1588 14.2206 14.1134 14.0204 14.0454C13.7222 13.9403 13.475 13.7812 13.2789 13.5682C13.0858 13.3523 12.975 13.0796 12.9465 12.75H11.8556C11.8898 13.2273 12.036 13.6463 12.2946 14.0071C12.5559 14.3679 12.9139 14.6491 13.3684 14.8509C13.7405 15.0149 14.1681 15.1123 14.6511 15.1429Z" fill="#696969"/>
<path fill-rule="evenodd" clip-rule="evenodd" d="M36.5 59.5H53.5H54V59.4902C60.6718 59.2277 66 53.7361 66 47C66 40.6899 61.3244 35.4719 55.2488 34.6214C52.914 26.4676 45.4039 20.5 36.5 20.5C28.7743 20.5 22.0979 24.9929 18.9411 31.5083C18.7947 31.5028 18.6477 31.5 18.5 31.5C13.2482 31.5 8.81871 35.0204 7.44244 39.83C3.15861 40.96 0 44.8612 0 49.5C0 55.0228 4.47715 59.5 10 59.5H36.5ZM43.8812 35.6757C44.3047 33.8416 43.1612 32.0116 41.3272 31.5881C39.4932 31.1647 37.6631 32.3081 37.2396 34.1422C36.9058 35.588 37.5459 37.0315 38.7304 37.7851L36.7895 46.1911C36.2994 46.2463 35.8136 46.4093 35.3674 46.6881C34.9075 46.9754 34.5398 47.3545 34.2733 47.7867L24.7963 45.5986C24.6382 44.2035 23.6215 42.9955 22.1756 42.6616C20.3416 42.2382 18.5116 43.3816 18.0881 45.2157C17.6647 47.0497 18.8081 48.8797 20.6422 49.3032C22.0881 49.637 23.5315 48.997 24.2852 47.8124L33.7915 50.0074C33.8514 50.4822 34.0128 50.9519 34.283 51.3844C35.2804 52.9807 37.383 53.4661 38.9793 52.4687C40.5756 51.4713 41.0611 49.3687 40.0637 47.7724C39.7849 47.3262 39.4197 46.9668 39.0034 46.7023L40.9442 38.2963C42.3393 38.1383 43.5474 37.1215 43.8812 35.6757ZM41.6674 35.1645C41.8086 34.5532 41.4274 33.9432 40.8161 33.802C40.2047 33.6609 39.5947 34.042 39.4535 34.6534C39.3124 35.2647 39.6936 35.8747 40.3049 36.0159C40.9162 36.157 41.5262 35.7759 41.6674 35.1645ZM20.3019 45.7268C20.4431 45.1155 21.0531 44.7343 21.6645 44.8755C22.2758 45.0166 22.657 45.6267 22.5158 46.238C22.3746 46.8493 21.7646 47.2305 21.1533 47.0893C20.542 46.9482 20.1608 46.3382 20.3019 45.7268ZM38.1368 48.9764C37.8043 48.4443 37.1034 48.2825 36.5713 48.615C36.0392 48.9475 35.8774 49.6483 36.2099 50.1804C36.5424 50.7125 37.2432 50.8743 37.7753 50.5419C38.3074 50.2094 38.4692 49.5085 38.1368 48.9764Z" fill="#696969"/>
</svg>
